<svg width="16" height="20" viewBox="0 0 16 20" fill="none" xmlns="http://www.w3.org/2000/svg">
<path d="M0.5 2.5V19.375C0.499921 19.4835 0.528106 19.5902 0.581781 19.6845C0.635456 19.7789 0.712771 19.8576 0.806115 19.913C0.899459 19.9684 1.00561 19.9985 1.11413 20.0004C1.22265 20.0023 1.32979 19.9758 1.425 19.9237L8 16.3363L14.575 19.9237C14.6702 19.9758 14.7774 20.0023 14.8859 20.0004C14.9944 19.9985 15.1005 19.9684 15.1939 19.913C15.2872 19.8576 15.3645 19.7789 15.4182 19.6845C15.4719 19.5902 15.5001 19.4835 15.5 19.375V2.5C15.5 1.83696 15.2366 1.20107 14.7678 0.732233C14.2989 0.263392 13.663 0 13 0L3 0C2.33696 0 1.70107 0.263392 1.23223 0.732233C0.763392 1.20107 0.5 1.83696 0.5 2.5Z" fill="#373737"/>
</svg>
