<svg width="30" height="30" viewBox="0 0 30 30" fill="none" xmlns="http://www.w3.org/2000/svg">
<path d="M21.5901 5.62561C19.407 5.62367 17.1317 5.69358 14.9793 5.81235C12.3552 5.95707 9.9058 6.17885 8.03871 6.42184C6.10442 9.09723 4.63659 11.6247 4.19748 13.3806C3.97014 14.2898 4.02698 14.9404 4.28713 15.3335C4.54741 15.7267 5.06948 16.0099 6.13752 16.0374C8.39631 16.0956 12.6454 14.5789 16.5496 12.3841C20.0415 10.4212 23.3006 7.8967 24.8431 5.69176C23.8031 5.6484 22.7117 5.62649 21.5901 5.62555V5.62561ZM26.0599 5.75428C24.4845 8.42194 20.9053 11.1457 17.0665 13.3036C13.0657 15.5526 8.8401 17.1621 6.11039 17.0918C4.85098 17.0594 3.90786 16.6711 3.40776 15.9156C2.90772 15.1601 2.90936 14.1846 3.17438 13.1248C3.63375 11.2877 4.91186 9.04092 6.59274 6.63365C6.13588 6.70994 5.74266 6.7867 5.42713 6.86235C3.65373 9.15242 2.56401 11.0645 2.02084 12.5967C1.46584 14.1624 1.47827 15.3098 1.81811 16.12C2.15772 16.9302 2.83178 17.4714 3.82946 17.7955C4.82233 18.1181 6.12135 18.1923 7.56112 18.0154C14.3756 16.5007 19.1309 13.7319 22.2655 11.1136C23.8351 9.80258 24.998 8.52864 25.8052 7.47201C26.3075 6.81436 26.6576 6.24916 26.8941 5.81106C26.6162 5.78997 26.3381 5.77103 26.0599 5.75422V5.75428ZM19.2108 6.35334C19.3549 6.35117 20.7635 7.26987 20.9068 7.80237C20.9513 7.9676 20.6272 8.56866 20.2851 8.43037C19.4693 8.10067 19.0642 6.50012 19.2008 6.35662C19.2028 6.35457 19.2061 6.35346 19.2108 6.3534V6.35334ZM16.5807 6.77533C16.6941 6.73039 18.1396 8.45698 18.0495 9.13274C18.0224 9.33588 17.2948 9.86082 16.9226 9.5566C16.0348 8.83104 16.3303 6.87453 16.5807 6.77528V6.77533ZM27.483 6.91151C27.2552 7.27385 26.9773 7.67498 26.6432 8.11239C25.7878 9.23223 24.5724 10.561 22.9416 11.9231C19.6801 14.6473 14.7555 17.5022 7.76057 19.0518L7.73637 19.0572L7.71164 19.0603C6.15381 19.2542 4.70871 19.1904 3.50356 18.7987C3.39803 18.764 3.29355 18.7262 3.19026 18.6853C3.46682 19.0668 3.75662 19.4394 4.06606 19.8002L4.44188 19.8412C4.44188 19.8412 5.4668 19.9532 6.73301 19.9933C7.99922 20.0333 9.52108 19.983 10.3658 19.7298C11.0029 19.5389 11.5902 19.0724 12.2269 18.5473C12.8637 18.0221 13.5494 17.4383 14.4512 17.162C15.2116 16.9289 15.9522 17.0367 16.6096 17.1088C17.2671 17.1809 17.8344 17.2178 18.2872 17.0434C19.8755 16.4317 22.0294 14.6481 23.7217 13.02C25.4142 11.3921 26.6742 9.93096 26.6742 9.93096L26.8951 9.67461C27.3248 8.56461 27.6556 7.62313 27.7025 7.48924C27.6314 7.2959 27.5583 7.10331 27.4831 6.91151H27.483ZM9.9617 6.96225C10.0611 6.96418 10.1293 6.97924 10.1541 7.0066C10.226 7.08629 8.94768 8.78446 8.28018 8.91149C8.0795 8.94957 7.39325 8.50924 7.58848 8.11367C7.98135 7.31768 9.42481 6.95153 9.96153 6.96219L9.9617 6.96225ZM13.8449 7.51069C14.0208 7.58569 14.143 9.45342 13.4693 10.2293C13.1869 10.5546 12.6868 10.1075 12.6766 9.91326C12.643 9.26727 13.7651 7.47658 13.8449 7.51057V7.51069ZM11.5785 7.68119C11.5975 7.68049 11.6125 7.68283 11.6228 7.68846C11.6972 7.72948 11.1796 9.33295 10.7126 9.60125C10.5723 9.68194 9.94436 9.53024 9.98813 9.18336C10.086 8.4077 11.2927 7.69303 11.5785 7.68131L11.5785 7.68119ZM28.2148 9.18365C27.7829 10.3513 27.1472 11.9762 26.5954 12.9972C25.7207 14.6153 24.78 16.3279 23.3607 17.659C22.3054 18.6488 21.0113 19.3392 19.7152 19.8542C18.6877 20.2625 17.6741 20.2054 16.9103 20.4716C16.4902 20.6181 15.98 21.1122 15.4119 21.7189C14.8437 22.3255 14.2083 23.0273 13.3514 23.4645C12.698 23.7979 11.9013 23.9145 11.0844 23.9243C11.8742 24.1082 12.7375 24.2537 13.6869 24.3539C13.6924 24.3519 14.2594 24.142 14.9537 23.845C15.6516 23.5468 16.4813 23.1504 16.9143 22.8494C17.2938 22.5857 17.6293 22.1689 18.0022 21.7139C18.375 21.2588 18.7894 20.7615 19.3958 20.4264C20.5608 19.7826 21.837 19.8574 22.8203 19.5948C23.4755 19.4197 24.0045 19.4073 24.2273 19.2208C24.6363 18.8788 24.8382 18.2142 25.0518 17.4276C25.2653 16.6412 25.4992 15.7193 26.3042 15.1467C26.6835 14.877 27.0557 14.8804 27.3745 14.8671C27.4497 14.864 27.5249 14.8626 27.6002 14.863C27.6229 14.8631 27.6416 14.8637 27.6629 14.8641C28.3389 13.0286 28.4958 11.5817 28.3898 10.3272C28.3563 9.93114 28.2956 9.55203 28.2147 9.18371L28.2148 9.18365ZM8.89125 9.63295C8.93637 9.63354 8.96772 9.64057 8.98149 9.65405C9.03153 9.70244 8.27754 10.8584 7.85075 10.9698C7.72243 11.0033 7.25871 10.7481 7.36793 10.4833C7.59586 9.93078 8.57584 9.62826 8.89125 9.63295ZM15.2585 9.9019C15.449 9.90811 16.3673 10.7017 16.3233 11.3621C16.3044 11.6479 15.7756 11.6714 15.6753 11.5846C15.3417 11.2957 15.1761 9.92522 15.2423 9.90395C15.2476 9.90239 15.253 9.90172 15.2585 9.90196V9.9019ZM11.6132 10.0885C11.6167 10.0876 11.6195 10.0878 11.6213 10.089C11.7524 10.1691 11.769 11.4499 11.2235 11.8605C10.9947 12.0327 10.6317 11.6472 10.632 11.5144C10.6329 11.0867 11.5048 10.1158 11.6133 10.0885L11.6132 10.0885ZM25.5748 12.6657C25.2066 13.043 24.8326 13.4145 24.4529 13.7802C22.7217 15.4455 20.5769 17.2919 18.6662 18.0278C17.9138 18.3175 17.1629 18.2305 16.4947 18.1573C15.8265 18.084 15.2341 18.0252 14.7601 18.1705C14.1232 18.3656 13.5355 18.8352 12.898 19.361C12.2605 19.8868 11.5729 20.4691 10.6686 20.7401C9.55454 21.074 8.01012 21.0887 6.69967 21.0474C6.19707 21.031 5.69489 21.0039 5.19346 20.9659C5.37862 21.1344 5.5708 21.2989 5.77108 21.4586C6.17508 21.7808 6.61266 22.0855 7.09043 22.3691C7.395 22.4404 8.26817 22.6331 9.32286 22.7567C10.6229 22.909 12.1547 22.891 12.8719 22.5252C13.5 22.2047 14.0716 21.6069 14.6419 20.998C15.2122 20.389 15.772 19.7514 16.5632 19.4757C17.5934 19.1167 18.5874 19.1675 19.3255 18.8741C20.5437 18.3901 21.7202 17.7515 22.639 16.8897C23.8519 15.7523 24.7323 14.219 25.5747 12.6657H25.5748ZM27.2249 15.9423C27.0479 15.9714 26.8995 16.0176 26.9155 16.0061C26.489 16.3095 26.2805 16.9274 26.0696 17.7041C26.0448 17.7953 26.02 17.8888 25.9945 17.9833C26.2723 17.641 26.517 17.3124 26.7183 17.0079C26.8963 16.6571 27.0652 16.3018 27.2248 15.9422L27.2249 15.9423ZM23.4954 20.5454C23.3439 20.5653 23.2061 20.5835 23.0924 20.6138C21.8875 20.9356 20.7234 20.8978 19.9059 21.3496C19.5161 21.565 19.1801 21.9402 18.8179 22.3824C18.4556 22.8246 18.0714 23.3298 17.5161 23.7156C17.1873 23.9441 16.7723 24.1674 16.3429 24.3746C18.1071 24.0888 20.0037 23.1557 21.7139 21.9496C22.3379 21.5096 22.9358 21.0337 23.4955 20.5454H23.4954Z" fill="#FF6C75"/>
</svg>
