<svg width="17" height="20" viewBox="0 0 17 20" fill="none" xmlns="http://www.w3.org/2000/svg">
<path d="M2.28846 19.6154H0.980769C0.720653 19.6154 0.471191 19.5121 0.287261 19.3281C0.103331 19.1442 0 18.8947 0 18.6346V12.75C0 12.4899 0.103331 12.2404 0.287261 12.0565C0.471191 11.8726 0.720653 11.7692 0.980769 11.7692H2.28846C2.54858 11.7692 2.79804 11.8726 2.98197 12.0565C3.1659 12.2404 3.26923 12.4899 3.26923 12.75V18.6346C3.26923 18.8947 3.1659 19.1442 2.98197 19.3281C2.79804 19.5121 2.54858 19.6154 2.28846 19.6154ZM11.4423 19.6154H10.1346C9.8745 19.6154 9.62504 19.5121 9.44111 19.3281C9.25718 19.1442 9.15385 18.8947 9.15385 18.6346V8.82692C9.15385 8.56681 9.25718 8.31734 9.44111 8.13341C9.62504 7.94948 9.8745 7.84615 10.1346 7.84615H11.4423C11.7024 7.84615 11.9519 7.94948 12.1358 8.13341C12.3197 8.31734 12.4231 8.56681 12.4231 8.82692V18.6346C12.4231 18.8947 12.3197 19.1442 12.1358 19.3281C11.9519 19.5121 11.7024 19.6154 11.4423 19.6154ZM16.0192 19.6154H14.7115C14.4514 19.6154 14.202 19.5121 14.018 19.3281C13.8341 19.1442 13.7308 18.8947 13.7308 18.6346V4.25C13.7308 3.98988 13.8341 3.74042 14.018 3.55649C14.202 3.37256 14.4514 3.26923 14.7115 3.26923H16.0192C16.2793 3.26923 16.5288 3.37256 16.7127 3.55649C16.8967 3.74042 17 3.98988 17 4.25V18.6346C17 18.8947 16.8967 19.1442 16.7127 19.3281C16.5288 19.5121 16.2793 19.6154 16.0192 19.6154ZM6.86538 19.6154H5.55769C5.29758 19.6154 5.04811 19.5121 4.86418 19.3281C4.68025 19.1442 4.57692 18.8947 4.57692 18.6346V0.980769C4.57692 0.720653 4.68025 0.471191 4.86418 0.287261C5.04811 0.103331 5.29758 0 5.55769 0H6.86538C7.1255 0 7.37496 0.103331 7.55889 0.287261C7.74282 0.471191 7.84615 0.720653 7.84615 0.980769V18.6346C7.84615 18.8947 7.74282 19.1442 7.55889 19.3281C7.37496 19.5121 7.1255 19.6154 6.86538 19.6154Z" fill="#373737"/>
</svg>
