<svg width="16" height="16" viewBox="0 0 16 16" fill="none" xmlns="http://www.w3.org/2000/svg">
<path d="M8.00009 5.39645C6.5665 5.39645 5.39658 6.56638 5.39658 7.99997C5.39658 9.43356 6.5665 10.6035 8.00009 10.6035C9.43369 10.6035 10.6036 9.43356 10.6036 7.99997C10.6036 6.56638 9.43369 5.39645 8.00009 5.39645ZM15.8087 7.99997C15.8087 6.92185 15.8185 5.85349 15.7579 4.77731C15.6974 3.52731 15.4122 2.41794 14.4981 1.50388C13.5821 0.587861 12.4747 0.304658 11.2247 0.244111C10.1466 0.183564 9.07822 0.19333 8.00205 0.19333C6.92392 0.19333 5.85556 0.183564 4.77939 0.244111C3.52939 0.304658 2.42001 0.589814 1.50595 1.50388C0.589936 2.41989 0.306733 3.52731 0.246186 4.77731C0.18564 5.85544 0.195405 6.9238 0.195405 7.99997C0.195405 9.07614 0.18564 10.1465 0.246186 11.2226C0.306733 12.4726 0.59189 13.582 1.50595 14.4961C2.42197 15.4121 3.52939 15.6953 4.77939 15.7558C5.85751 15.8164 6.92587 15.8066 8.00205 15.8066C9.08017 15.8066 10.1485 15.8164 11.2247 15.7558C12.4747 15.6953 13.5841 15.4101 14.4981 14.4961C15.4142 13.58 15.6974 12.4726 15.7579 11.2226C15.8204 10.1465 15.8087 9.0781 15.8087 7.99997ZM8.00009 12.0058C5.7833 12.0058 3.99423 10.2168 3.99423 7.99997C3.99423 5.78317 5.7833 3.99411 8.00009 3.99411C10.2169 3.99411 12.006 5.78317 12.006 7.99997C12.006 10.2168 10.2169 12.0058 8.00009 12.0058ZM12.17 4.7656C11.6524 4.7656 11.2345 4.34763 11.2345 3.83005C11.2345 3.31247 11.6524 2.8945 12.17 2.8945C12.6876 2.8945 13.1056 3.31247 13.1056 3.83005C13.1057 3.95295 13.0816 4.07467 13.0347 4.18825C12.9877 4.30182 12.9188 4.40502 12.8319 4.49192C12.745 4.57883 12.6418 4.64773 12.5282 4.6947C12.4146 4.74166 12.2929 4.76575 12.17 4.7656Z" fill="#373737"/>
</svg>
