<svg width="40" height="40" viewBox="0 0 40 40" fill="none" xmlns="http://www.w3.org/2000/svg">
<path d="M31.6667 5H8.33333C6.48333 5 5 6.48333 5 8.33333V31.6667C5 32.5507 5.35119 33.3986 5.97631 34.0237C6.60143 34.6488 7.44928 35 8.33333 35H31.6667C33.5167 35 35 33.5167 35 31.6667V8.33333C35 7.44928 34.6488 6.60143 34.0237 5.97631C33.3986 5.35119 32.5507 5 31.6667 5ZM14.7167 11.75C16.35 11.75 17.6667 13.0667 17.6667 14.7167C17.6667 16.35 16.35 17.6667 14.7167 17.6667C13.0667 17.6667 11.75 16.35 11.75 14.7167C11.75 13.0667 13.0667 11.75 14.7167 11.75ZM25.3667 28.3333C23.7333 28.3333 22.4167 27 22.4167 25.3667C22.4167 23.7333 23.7333 22.4167 25.3667 22.4167C27 22.4167 28.3333 23.7333 28.3333 25.3667C28.3333 27 27 28.3333 25.3667 28.3333ZM14.1667 28.3833L11.6667 25.8833L25.8833 11.6667L28.3833 14.1667L14.1667 28.3833V28.3833Z" fill="white"/>
</svg>
