<svg width="16" height="16" viewBox="0 0 16 16" fill="none" xmlns="http://www.w3.org/2000/svg">
<path d="M12.6875 10.9688C12.1309 10.9688 11.6172 11.1641 11.2148 11.4902L7.16797 8.5625C7.23573 8.19056 7.23573 7.80944 7.16797 7.4375L11.2148 4.50977C11.6172 4.83594 12.1309 5.03125 12.6875 5.03125C13.9805 5.03125 15.0312 3.98047 15.0312 2.6875C15.0312 1.39453 13.9805 0.34375 12.6875 0.34375C11.3945 0.34375 10.3438 1.39453 10.3438 2.6875C10.3438 2.91406 10.375 3.13086 10.4355 3.33789L6.5918 6.12109C6.02148 5.36523 5.11523 4.875 4.09375 4.875C2.36719 4.875 0.96875 6.27344 0.96875 8C0.96875 9.72656 2.36719 11.125 4.09375 11.125C5.11523 11.125 6.02148 10.6348 6.5918 9.87891L10.4355 12.6621C10.375 12.8691 10.3438 13.0879 10.3438 13.3125C10.3438 14.6055 11.3945 15.6562 12.6875 15.6562C13.9805 15.6562 15.0312 14.6055 15.0312 13.3125C15.0312 12.0195 13.9805 10.9688 12.6875 10.9688ZM12.6875 1.67188C13.248 1.67188 13.7031 2.12695 13.7031 2.6875C13.7031 3.24805 13.248 3.70312 12.6875 3.70312C12.127 3.70312 11.6719 3.24805 11.6719 2.6875C11.6719 2.12695 12.127 1.67188 12.6875 1.67188ZM4.09375 9.71875C3.14648 9.71875 2.375 8.94727 2.375 8C2.375 7.05273 3.14648 6.28125 4.09375 6.28125C5.04102 6.28125 5.8125 7.05273 5.8125 8C5.8125 8.94727 5.04102 9.71875 4.09375 9.71875ZM12.6875 14.3281C12.127 14.3281 11.6719 13.873 11.6719 13.3125C11.6719 12.752 12.127 12.2969 12.6875 12.2969C13.248 12.2969 13.7031 12.752 13.7031 13.3125C13.7031 13.873 13.248 14.3281 12.6875 14.3281Z" fill="#373737"/>
</svg>
