<svg width="20" height="20" viewBox="0 0 20 20" fill="none" xmlns="http://www.w3.org/2000/svg">
<path d="M18.125 0H1.875C0.84375 0 0 0.84375 0 1.875V18.125C0 19.1562 0.84375 20 1.875 20H18.125C19.1562 20 20 19.1562 20 18.125V1.875C20 0.84375 19.1562 0 18.125 0ZM16.1987 14L14.37 14.0275C14.37 14.0275 13.975 14.1062 13.46 13.75C12.7762 13.2812 12.1313 12.0587 11.6275 12.2188C11.12 12.3787 11.135 13.4762 11.135 13.4762C11.135 13.4762 11.1388 13.7112 11.0213 13.835C10.8963 13.9712 10.6462 13.9988 10.6462 13.9988H9.83C9.83 13.9988 8.025 14.1088 6.435 12.4513C4.7 10.6463 3.17 7.065 3.17 7.065C3.17 7.065 3.08 6.83 3.1775 6.7175C3.28625 6.58875 3.58 6.58125 3.58 6.58125L5.5375 6.57C5.5375 6.57 5.72125 6.60125 5.85375 6.69875C5.96375 6.7775 6.02125 6.92875 6.02125 6.92875C6.02125 6.92875 6.3375 7.73 6.75625 8.4525C7.5725 9.8625 7.955 10.1712 8.2325 10.0225C8.635 9.80375 8.51375 8.02625 8.51375 8.02625C8.51375 8.02625 8.52125 7.38125 8.31125 7.09625C8.1475 6.87375 7.83875 6.8075 7.70625 6.79125C7.59625 6.775 7.77625 6.52125 8.01125 6.405C8.3625 6.2325 8.98375 6.22125 9.71875 6.22875C10.2887 6.2325 10.4575 6.27125 10.68 6.3225C11.3562 6.48625 11.125 7.115 11.125 8.62375C11.125 9.10875 11.0388 9.7875 11.3863 10.01C11.535 10.1075 11.9012 10.025 12.82 8.4675C13.2537 7.72875 13.5812 6.8625 13.5812 6.8625C13.5812 6.8625 13.6512 6.70625 13.7612 6.64C13.875 6.57375 14.0275 6.59375 14.0275 6.59375L16.0863 6.5825C16.0863 6.5825 16.7038 6.50875 16.805 6.79C16.91 7.0825 16.575 7.76625 15.735 8.8875C14.3563 10.7275 14.2 10.555 15.3488 11.6175C16.4425 12.6337 16.6687 13.1288 16.7087 13.1913C17.1537 13.9413 16.2013 14 16.2013 14H16.1987Z" fill="#373737"/>
</svg>
