<svg width="18" height="18" viewBox="0 0 18 18" fill="none" xmlns="http://www.w3.org/2000/svg">
<path d="M7.29688 6.89453L11.0156 9.00781L7.29688 11.1211V6.89453ZM17.5 2.125V15.875C17.5 16.9102 16.6602 17.75 15.625 17.75H1.875C0.839844 17.75 0 16.9102 0 15.875V2.125C0 1.08984 0.839844 0.25 1.875 0.25H15.625C16.6602 0.25 17.5 1.08984 17.5 2.125ZM15.8594 9.01172C15.8594 9.01172 15.8594 6.68359 15.5625 5.56641C15.3984 4.94922 14.918 4.46484 14.3047 4.30078C13.1992 4 8.75 4 8.75 4C8.75 4 4.30078 4 3.19531 4.30078C2.58203 4.46484 2.10156 4.94922 1.9375 5.56641C1.64062 6.67969 1.64062 9.01172 1.64062 9.01172C1.64062 9.01172 1.64062 11.3398 1.9375 12.457C2.10156 13.0742 2.58203 13.5391 3.19531 13.7031C4.30078 14 8.75 14 8.75 14C8.75 14 13.1992 14 14.3047 13.6992C14.918 13.5352 15.3984 13.0703 15.5625 12.4531C15.8594 11.3398 15.8594 9.01172 15.8594 9.01172Z" fill="#373737"/>
</svg>
