<svg width="40" height="40" viewBox="0 0 40 40" fill="none" xmlns="http://www.w3.org/2000/svg">
<path d="M9.49061 7.1344C9.32499 6.83752 7.37811 4.88752 7.37811 4.88752C7.37811 4.88752 6.94999 4.22815 6.05624 4.22815C5.16249 4.22815 4.89999 5.11565 4.24374 6.25002C3.68124 7.2219 1.15936 11.2531 1.18749 17.5344C1.21249 22.8844 2.39061 25.7594 4.83436 28.8656C6.94686 31.55 11.6687 34.3813 16.9875 35.3719C22.3031 36.3625 29.4375 35.9656 33.4344 33.1938C37.4312 30.4219 38.2219 27.325 38.5875 25.0688C39.05 22.2031 38.9687 18.4656 37.8156 18.0406C36.7969 17.6688 35.2531 18.4781 35.2531 18.4781L9.49061 7.1344Z" fill="#7A9C41"/>
<path d="M33.9686 17.175L35.1311 17.2125L37.1499 17.9406C37.1499 17.9406 31.8436 29.0625 21.1499 31.5062C11.0968 33.8031 3.70302 28.8937 2.86552 19.6906C1.99052 10.0625 7.23739 4.72186 7.23739 4.72186L8.69989 5.49061L16.5499 20.0375L33.9686 17.175Z" fill="#FFF6A0"/>
<path d="M9.86251 27.8875C15.4656 31.8813 24.7969 29.3531 29.6969 24.2469C34.7781 18.95 35.1344 17.2125 35.1344 17.2125C35.1344 17.2125 29.1125 14.7406 26.1406 13.3344C23.1688 11.9281 14.3625 8.06877 12.9531 7.39065C11.5438 6.71252 8.62501 5.4469 8.62501 5.4469C8.62501 5.4469 6.01876 8.9594 5.04376 13.6563C4.06876 18.3531 4.59376 24.1344 9.86251 27.8875Z" fill="#FF6C75"/>
<path d="M13.3062 13.1844C13.3687 13.4563 13.1999 14.4281 11.8905 15.025C11.2124 15.3344 10.6812 15.0406 10.4905 14.5688C10.278 14.0438 10.5843 13.3563 11.3312 13.0375C12.1874 12.6688 13.2624 12.9906 13.3062 13.1844ZM15.6655 17.0531C16.0718 17.425 15.5468 18.6156 15.2655 18.9781C14.9843 19.3438 14.128 20.1313 13.4405 19.3906C12.7312 18.6219 13.6374 17.7063 13.928 17.4625C14.2187 17.2188 15.2687 16.6906 15.6655 17.0531ZM19.8593 18.6188C19.4562 18.5969 18.5624 19.5031 18.6999 20.5781C18.8249 21.55 19.3343 21.7438 19.753 21.775C20.1687 21.8063 20.6968 21.4 20.7749 20.3969C20.8593 19.2781 20.153 18.6344 19.8593 18.6188ZM24.1374 17.6938C23.853 17.8938 23.7249 18.9438 24.2312 19.7844C24.6343 20.45 25.3405 20.7656 25.9093 20.3219C26.478 19.8781 26.3843 19.0719 25.7655 18.375C25.1499 17.6781 24.4062 17.5031 24.1374 17.6938Z" fill="#2F2F2F"/>
<path d="M37.3343 22.0375C37.4593 22.2375 37.628 22.6656 37.3218 23.2062C37.053 23.6812 36.7312 23.925 36.8218 24.5312C36.9124 25.1375 37.3749 25.0312 37.3499 26.2531C37.3312 27.1469 36.6687 27.8094 36.0905 28.2719C35.5124 28.7344 35.153 29.1219 35.0999 29.9187C35.0468 30.7344 34.9062 31.475 34.4187 31.9375C33.5562 32.7469 32.8312 32.2656 32.0655 33.0312C31.4593 33.6375 31.5749 34.2281 31.5749 34.2281C31.5749 34.2281 30.9812 34.5187 29.9218 34.8562C28.6093 35.2719 27.8843 35.3531 27.8843 35.3531C27.8843 35.3531 28.6312 34.7906 28.8374 34.175C29.0437 33.5594 29.2374 32.5937 29.9562 32.0031C31.3843 30.8719 32.3843 31.7469 33.0155 31.1031C33.5812 30.525 32.8999 29.8062 33.6312 28.4562C34.2405 27.3344 35.5468 27.3375 35.6374 26.475C35.728 25.6125 35.1655 25.5125 35.328 24.4187C35.5343 23.0406 37.2687 21.9344 37.3343 22.0375Z" fill="#C1CA32"/>
<path d="M17.8626 35.5187C17.8626 35.5187 18.0626 34.5344 19.272 34.1469C20.0438 33.8375 20.7126 34.2875 21.4688 34.0312C22.2282 33.775 22.3188 32.7969 23.4345 32.2437C24.5532 31.6906 25.3626 32.4875 26.4282 32.1281C27.4938 31.7687 26.9938 30.4312 27.9438 29.4937C29.0907 28.3625 30.1126 29.1312 30.9376 28.5156C32.0438 27.6937 31.7845 26.3281 32.622 26.3031C33.0595 26.2906 33.2782 27.125 33.0063 28.1531C32.7376 29.1812 31.9782 29.775 31.2438 30.0031C30.4595 30.2469 30.022 30.0687 29.4688 30.8125C29.0938 31.3156 28.9345 32.4656 27.8626 33.1125C26.2688 34.0781 25.6782 33.4594 24.7657 34.0781C23.7001 34.9281 23.597 35.8312 23.597 35.8312C23.597 35.8312 21.7313 35.8906 20.8438 35.8406C19.4501 35.7625 17.8626 35.5187 17.8626 35.5187ZM11.4438 33.6219C11.4438 33.6219 13.1532 33.75 14.0407 33.6719C14.9282 33.5937 16.6001 33.325 16.7032 34.1094C16.8063 34.8937 15.9438 35.15 15.9438 35.15C15.9438 35.15 14.5157 34.8406 13.5907 34.5062C12.6626 34.175 11.4438 33.6219 11.4438 33.6219Z" fill="#C1CA32"/>
</svg>
