<svg width="253" height="257" viewBox="0 0 253 257" fill="none" xmlns="http://www.w3.org/2000/svg">
<g filter="url(#filter0_d_595_25553)">
<rect x="60" y="10" width="50" height="50" rx="25" fill="#FF9198"/>
<rect x="10" y="60" width="50" height="50" rx="25" fill="#FF9198"/>
<rect width="50" height="50" rx="25" fill="#FF9198"/>
<path fill-rule="evenodd" clip-rule="evenodd" d="M145 20C131.193 20 120 31.1929 120 45C120 46.9468 120.223 48.8416 120.644 50.6605C119.21 51.9294 117.869 53.3268 116.638 54.8472L103.241 71.3902C100.661 70.4896 97.8876 70 95 70C81.1929 70 70 81.1929 70 95C70 99.7479 71.3235 104.187 73.6217 107.967L59.8944 124.919C55.7343 121.829 50.5807 120 45 120C31.1929 120 20 131.193 20 145C20 156.724 28.0702 166.563 38.9585 169.265C39.5372 172.87 40.6864 176.419 42.42 179.775L64.6249 222.763C69.1517 231.527 77.1663 237.974 86.6966 240.517L132.371 252.707C145.715 256.268 159.905 251.649 168.596 240.917L239.123 153.824C247.814 143.091 249.381 128.25 243.124 115.939L221.704 73.7969C217.235 65.0036 209.263 58.5045 199.749 55.8987L169.855 47.7104C169.951 46.8201 170 45.9158 170 45C170 31.1929 158.807 20 145 20ZM38.9585 169.265C40.8932 169.745 42.9168 170 45 170C58.8071 170 70 158.807 70 145C70 136.774 66.0266 129.475 59.8944 124.919L46.3165 141.687C39.9501 149.548 37.4086 159.61 38.9585 169.265ZM73.6217 107.967C78.0069 115.181 85.9407 120 95 120C108.807 120 120 108.807 120 95C120 84.0805 112.999 74.796 103.241 71.3902L73.6217 107.967ZM169.855 47.7104C168.504 60.2427 157.891 70 145 70C133.14 70 123.208 61.741 120.644 50.6605C129.391 42.9174 141.57 39.9632 153.084 43.1168L169.855 47.7104Z" fill="#FF9198"/>
</g>
<defs>
<filter id="filter0_d_595_25553" x="0" y="0" width="252.923" height="256.892" filterUnits="userSpaceOnUse" color-interpolation-filters="sRGB">
<feFlood flood-opacity="0" result="BackgroundImageFix"/>
<feColorMatrix in="SourceAlpha" type="matrix" values="0 0 0 0 0 0 0 0 0 0 0 0 0 0 0 0 0 0 127 0" result="hardAlpha"/>
<feOffset dx="6" dy="3"/>
<feComposite in2="hardAlpha" operator="out"/>
<feColorMatrix type="matrix" values="0 0 0 0 1 0 0 0 0 0.423529 0 0 0 0 0.458824 0 0 0 1 0"/>
<feBlend mode="normal" in2="BackgroundImageFix" result="effect1_dropShadow_595_25553"/>
<feBlend mode="normal" in="SourceGraphic" in2="effect1_dropShadow_595_25553" result="shape"/>
</filter>
</defs>
</svg>
